<mxfile host="app.diagrams.net" modified="2021-08-22T17:35:08.341Z" agent="5.0 (Windows NT 10.0; Win64; x64) AppleWebKit/537.36 (KHTML, like Gecko) Chrome/92.0.4515.159 Safari/537.36" etag="cjzQWA9DhFIrNuz3B2Bp" version="14.9.8" type="github">
  <diagram id="pXsemJVguqhCR1URukLD" name="Page-1">
    <mxGraphModel dx="2381" dy="616" grid="1" gridSize="10" guides="1" tooltips="1" connect="1" arrows="1" fold="1" page="1" pageScale="1" pageWidth="827" pageHeight="1169" math="0" shadow="0">
      <root>
        <mxCell id="0" />
        <mxCell id="1" parent="0" />
        <mxCell id="Wvdo1vgkeKQc-Hcm9Mp9-2" value="" style="rounded=0;whiteSpace=wrap;html=1;rotation=90;fillColor=#f5f5f5;strokeColor=#666666;fontColor=#333333;" parent="1" vertex="1">
          <mxGeometry x="142.5" y="287.5" width="570" height="225" as="geometry" />
        </mxCell>
        <mxCell id="Wvdo1vgkeKQc-Hcm9Mp9-3" value="Các chức năng chính" style="text;html=1;resizable=0;autosize=1;align=center;verticalAlign=middle;points=[];rounded=0;fontStyle=1;fontSize=18;fontColor=#CC0000;" parent="1" vertex="1">
          <mxGeometry x="327.5" y="130" width="200" height="30" as="geometry" />
        </mxCell>
        <mxCell id="Wvdo1vgkeKQc-Hcm9Mp9-4" value="Trang chủ" style="rounded=1;whiteSpace=wrap;html=1;fontSize=18;fillColor=#fff2cc;strokeColor=#d6b656;" parent="1" vertex="1">
          <mxGeometry x="367.5" y="180" width="120" height="60" as="geometry" />
        </mxCell>
        <mxCell id="Wvdo1vgkeKQc-Hcm9Mp9-5" value="Đào tạo" style="rounded=1;whiteSpace=wrap;html=1;fontSize=18;fillColor=#fff2cc;strokeColor=#d6b656;" parent="1" vertex="1">
          <mxGeometry x="367.5" y="260" width="120" height="60" as="geometry" />
        </mxCell>
        <mxCell id="Wvdo1vgkeKQc-Hcm9Mp9-6" value="Hỗ trợ khởi nghiệp" style="rounded=1;whiteSpace=wrap;html=1;fontSize=18;fillColor=#fff2cc;strokeColor=#d6b656;" parent="1" vertex="1">
          <mxGeometry x="367.5" y="440" width="120" height="60" as="geometry" />
        </mxCell>
        <mxCell id="Wvdo1vgkeKQc-Hcm9Mp9-9" value="Sự kiện" style="rounded=1;whiteSpace=wrap;html=1;fontSize=18;fillColor=#fff2cc;strokeColor=#d6b656;" parent="1" vertex="1">
          <mxGeometry x="367.5" y="350" width="120" height="60" as="geometry" />
        </mxCell>
        <mxCell id="Wvdo1vgkeKQc-Hcm9Mp9-11" value="Tin tức" style="rounded=1;whiteSpace=wrap;html=1;fontSize=18;fillColor=#fff2cc;strokeColor=#d6b656;" parent="1" vertex="1">
          <mxGeometry x="367.5" y="525" width="120" height="60" as="geometry" />
        </mxCell>
        <mxCell id="Wvdo1vgkeKQc-Hcm9Mp9-12" value="Thư viện" style="rounded=1;whiteSpace=wrap;html=1;fontSize=18;fillColor=#fff2cc;strokeColor=#d6b656;" parent="1" vertex="1">
          <mxGeometry x="367.5" y="600" width="120" height="60" as="geometry" />
        </mxCell>
        <mxCell id="Wvdo1vgkeKQc-Hcm9Mp9-13" value="&lt;font color=&quot;#ff0000&quot;&gt;Admin (quản trị viên)&lt;/font&gt;" style="shape=umlActor;verticalLabelPosition=bottom;verticalAlign=top;html=1;outlineConnect=0;fontSize=18;strokeColor=#006EAF;fillColor=#1ba1e2;fontColor=#ffffff;" parent="1" vertex="1">
          <mxGeometry x="10" y="340" width="30" height="60" as="geometry" />
        </mxCell>
        <mxCell id="Wvdo1vgkeKQc-Hcm9Mp9-14" value="&lt;font color=&quot;#ff0000&quot;&gt;Giáo viên (biên tập viên)&lt;/font&gt;" style="shape=umlActor;verticalLabelPosition=bottom;verticalAlign=top;html=1;outlineConnect=0;fontSize=18;fontColor=#ffffff;fillColor=#1ba1e2;strokeColor=#006EAF;" parent="1" vertex="1">
          <mxGeometry x="810" y="580" width="30" height="60" as="geometry" />
        </mxCell>
        <mxCell id="Wvdo1vgkeKQc-Hcm9Mp9-15" value="&lt;font color=&quot;#ff0000&quot;&gt;Người dùng&lt;/font&gt;" style="shape=umlActor;verticalLabelPosition=bottom;verticalAlign=top;html=1;outlineConnect=0;fontSize=18;fontColor=#ffffff;fillColor=#1ba1e2;strokeColor=#006EAF;" parent="1" vertex="1">
          <mxGeometry x="810" y="340" width="30" height="60" as="geometry" />
        </mxCell>
        <mxCell id="Wvdo1vgkeKQc-Hcm9Mp9-16" value="" style="endArrow=classic;html=1;fontSize=18;fontColor=#CC0000;entryX=0;entryY=0.5;entryDx=0;entryDy=0;" parent="1" target="Wvdo1vgkeKQc-Hcm9Mp9-4" edge="1">
          <mxGeometry width="50" height="50" relative="1" as="geometry">
            <mxPoint x="60" y="320" as="sourcePoint" />
            <mxPoint x="340" y="220" as="targetPoint" />
          </mxGeometry>
        </mxCell>
        <mxCell id="Wvdo1vgkeKQc-Hcm9Mp9-45" value="Xem, chỉnh sửa, xoá thư mục" style="edgeLabel;html=1;align=center;verticalAlign=middle;resizable=0;points=[];fontSize=16;fontColor=#000000;rotation=-20;" parent="Wvdo1vgkeKQc-Hcm9Mp9-16" vertex="1" connectable="0">
          <mxGeometry x="-0.2774" relative="1" as="geometry">
            <mxPoint x="19" y="-20" as="offset" />
          </mxGeometry>
        </mxCell>
        <mxCell id="Wvdo1vgkeKQc-Hcm9Mp9-17" value="" style="endArrow=classic;html=1;fontSize=18;fontColor=#CC0000;entryX=0;entryY=0.5;entryDx=0;entryDy=0;" parent="1" target="Wvdo1vgkeKQc-Hcm9Mp9-5" edge="1">
          <mxGeometry width="50" height="50" relative="1" as="geometry">
            <mxPoint x="110" y="360" as="sourcePoint" />
            <mxPoint x="180" y="340" as="targetPoint" />
          </mxGeometry>
        </mxCell>
        <mxCell id="Wvdo1vgkeKQc-Hcm9Mp9-46" value="Xem, chỉnh sửa, xoá thư mục" style="edgeLabel;html=1;align=center;verticalAlign=middle;resizable=0;points=[];fontSize=16;fontColor=#000000;rotation=-15;" parent="Wvdo1vgkeKQc-Hcm9Mp9-17" vertex="1" connectable="0">
          <mxGeometry x="-0.1067" y="4" relative="1" as="geometry">
            <mxPoint x="-24" y="-5" as="offset" />
          </mxGeometry>
        </mxCell>
        <mxCell id="Wvdo1vgkeKQc-Hcm9Mp9-18" value="" style="endArrow=classic;html=1;fontSize=18;fontColor=#CC0000;entryX=0;entryY=0.5;entryDx=0;entryDy=0;" parent="1" target="Wvdo1vgkeKQc-Hcm9Mp9-9" edge="1">
          <mxGeometry width="50" height="50" relative="1" as="geometry">
            <mxPoint x="110" y="400" as="sourcePoint" />
            <mxPoint x="250" y="400" as="targetPoint" />
          </mxGeometry>
        </mxCell>
        <mxCell id="Wvdo1vgkeKQc-Hcm9Mp9-47" value="Xem, chỉnh sửa, xoá thư mục" style="edgeLabel;html=1;align=center;verticalAlign=middle;resizable=0;points=[];fontSize=16;fontColor=#000000;rotation=-5;" parent="Wvdo1vgkeKQc-Hcm9Mp9-18" vertex="1" connectable="0">
          <mxGeometry x="0.1433" y="3" relative="1" as="geometry">
            <mxPoint x="-57" y="-6" as="offset" />
          </mxGeometry>
        </mxCell>
        <mxCell id="Wvdo1vgkeKQc-Hcm9Mp9-19" value="" style="endArrow=classic;html=1;fontSize=18;fontColor=#CC0000;" parent="1" target="Wvdo1vgkeKQc-Hcm9Mp9-6" edge="1">
          <mxGeometry width="50" height="50" relative="1" as="geometry">
            <mxPoint x="90" y="440" as="sourcePoint" />
            <mxPoint x="250" y="440" as="targetPoint" />
          </mxGeometry>
        </mxCell>
        <mxCell id="Wvdo1vgkeKQc-Hcm9Mp9-49" value="Xem, chỉnh sửa, xoá thư mục" style="edgeLabel;html=1;align=center;verticalAlign=middle;resizable=0;points=[];fontSize=16;fontColor=#000000;rotation=5;" parent="Wvdo1vgkeKQc-Hcm9Mp9-19" vertex="1" connectable="0">
          <mxGeometry x="-0.1494" y="-3" relative="1" as="geometry">
            <mxPoint x="-7" y="7" as="offset" />
          </mxGeometry>
        </mxCell>
        <mxCell id="Wvdo1vgkeKQc-Hcm9Mp9-20" value="" style="endArrow=classic;html=1;fontSize=18;fontColor=#CC0000;entryX=0;entryY=0.5;entryDx=0;entryDy=0;" parent="1" target="Wvdo1vgkeKQc-Hcm9Mp9-11" edge="1">
          <mxGeometry width="50" height="50" relative="1" as="geometry">
            <mxPoint x="60" y="460" as="sourcePoint" />
            <mxPoint x="240" y="500" as="targetPoint" />
          </mxGeometry>
        </mxCell>
        <mxCell id="Wvdo1vgkeKQc-Hcm9Mp9-50" value="Xem, chỉnh sửa, xoá thư mục" style="edgeLabel;html=1;align=center;verticalAlign=middle;resizable=0;points=[];fontSize=16;fontColor=#000000;rotation=15;" parent="Wvdo1vgkeKQc-Hcm9Mp9-20" vertex="1" connectable="0">
          <mxGeometry x="0.1481" y="2" relative="1" as="geometry">
            <mxPoint x="-37" as="offset" />
          </mxGeometry>
        </mxCell>
        <mxCell id="Wvdo1vgkeKQc-Hcm9Mp9-21" value="" style="endArrow=classic;html=1;fontSize=18;fontColor=#CC0000;entryX=0;entryY=0.5;entryDx=0;entryDy=0;" parent="1" target="Wvdo1vgkeKQc-Hcm9Mp9-12" edge="1">
          <mxGeometry width="50" height="50" relative="1" as="geometry">
            <mxPoint x="10" y="470" as="sourcePoint" />
            <mxPoint x="200" y="570" as="targetPoint" />
          </mxGeometry>
        </mxCell>
        <mxCell id="Wvdo1vgkeKQc-Hcm9Mp9-51" value="Xem, chỉnh sửa, xoá thư mục" style="edgeLabel;html=1;align=center;verticalAlign=middle;resizable=0;points=[];fontSize=16;fontColor=#000000;rotation=30;" parent="Wvdo1vgkeKQc-Hcm9Mp9-21" vertex="1" connectable="0">
          <mxGeometry x="0.3029" relative="1" as="geometry">
            <mxPoint x="-63" y="-4" as="offset" />
          </mxGeometry>
        </mxCell>
        <mxCell id="Wvdo1vgkeKQc-Hcm9Mp9-23" value="" style="endArrow=classic;html=1;fontSize=18;fontColor=#CC0000;entryX=1;entryY=0.5;entryDx=0;entryDy=0;" parent="1" target="Wvdo1vgkeKQc-Hcm9Mp9-4" edge="1">
          <mxGeometry x="-0.2658" y="-21" width="50" height="50" relative="1" as="geometry">
            <mxPoint x="780" y="320" as="sourcePoint" />
            <mxPoint x="620" y="250" as="targetPoint" />
            <mxPoint as="offset" />
          </mxGeometry>
        </mxCell>
        <mxCell id="Wvdo1vgkeKQc-Hcm9Mp9-31" value="Xem nội dung" style="edgeLabel;html=1;align=center;verticalAlign=middle;resizable=0;points=[];fontSize=16;rotation=15;" parent="Wvdo1vgkeKQc-Hcm9Mp9-23" vertex="1" connectable="0">
          <mxGeometry x="-0.597" relative="1" as="geometry">
            <mxPoint x="-51" y="-38" as="offset" />
          </mxGeometry>
        </mxCell>
        <mxCell id="Wvdo1vgkeKQc-Hcm9Mp9-24" value="" style="endArrow=classic;html=1;fontSize=18;fontColor=#CC0000;" parent="1" edge="1">
          <mxGeometry width="50" height="50" relative="1" as="geometry">
            <mxPoint x="770" y="370" as="sourcePoint" />
            <mxPoint x="490" y="290" as="targetPoint" />
          </mxGeometry>
        </mxCell>
        <mxCell id="Wvdo1vgkeKQc-Hcm9Mp9-32" value="Xem nội dung" style="edgeLabel;html=1;align=center;verticalAlign=middle;resizable=0;points=[];fontSize=16;rotation=15;" parent="Wvdo1vgkeKQc-Hcm9Mp9-24" vertex="1" connectable="0">
          <mxGeometry x="-0.1377" y="-3" relative="1" as="geometry">
            <mxPoint y="-12" as="offset" />
          </mxGeometry>
        </mxCell>
        <mxCell id="Wvdo1vgkeKQc-Hcm9Mp9-25" value="" style="endArrow=classic;html=1;fontSize=18;fontColor=#CC0000;entryX=1;entryY=0.5;entryDx=0;entryDy=0;" parent="1" target="Wvdo1vgkeKQc-Hcm9Mp9-9" edge="1">
          <mxGeometry width="50" height="50" relative="1" as="geometry">
            <mxPoint x="760" y="400" as="sourcePoint" />
            <mxPoint x="660" y="400" as="targetPoint" />
          </mxGeometry>
        </mxCell>
        <mxCell id="Wvdo1vgkeKQc-Hcm9Mp9-33" value="Xem nội dung" style="edgeLabel;html=1;align=center;verticalAlign=middle;resizable=0;points=[];fontSize=16;rotation=0;" parent="Wvdo1vgkeKQc-Hcm9Mp9-25" vertex="1" connectable="0">
          <mxGeometry x="-0.1708" relative="1" as="geometry">
            <mxPoint x="-7" y="-22" as="offset" />
          </mxGeometry>
        </mxCell>
        <mxCell id="Wvdo1vgkeKQc-Hcm9Mp9-26" value="" style="endArrow=classic;html=1;fontSize=18;fontColor=#CC0000;entryX=0.996;entryY=0.4;entryDx=0;entryDy=0;entryPerimeter=0;" parent="1" target="Wvdo1vgkeKQc-Hcm9Mp9-6" edge="1">
          <mxGeometry width="50" height="50" relative="1" as="geometry">
            <mxPoint x="760" y="430" as="sourcePoint" />
            <mxPoint x="640" y="450" as="targetPoint" />
          </mxGeometry>
        </mxCell>
        <mxCell id="Wvdo1vgkeKQc-Hcm9Mp9-34" value="Xem nội dung" style="edgeLabel;html=1;align=center;verticalAlign=middle;resizable=0;points=[];fontSize=16;rotation=0;" parent="Wvdo1vgkeKQc-Hcm9Mp9-26" vertex="1" connectable="0">
          <mxGeometry x="-0.2452" relative="1" as="geometry">
            <mxPoint x="-17" y="-23" as="offset" />
          </mxGeometry>
        </mxCell>
        <mxCell id="Wvdo1vgkeKQc-Hcm9Mp9-27" value="" style="endArrow=classic;html=1;fontSize=18;fontColor=#CC0000;entryX=1;entryY=0.5;entryDx=0;entryDy=0;" parent="1" target="Wvdo1vgkeKQc-Hcm9Mp9-11" edge="1">
          <mxGeometry width="50" height="50" relative="1" as="geometry">
            <mxPoint x="780" y="450" as="sourcePoint" />
            <mxPoint x="500" y="550" as="targetPoint" />
          </mxGeometry>
        </mxCell>
        <mxCell id="Wvdo1vgkeKQc-Hcm9Mp9-35" value="Xem nội dung" style="edgeLabel;html=1;align=center;verticalAlign=middle;resizable=0;points=[];fontSize=16;rotation=-15;" parent="Wvdo1vgkeKQc-Hcm9Mp9-27" vertex="1" connectable="0">
          <mxGeometry x="-0.2262" y="-3" relative="1" as="geometry">
            <mxPoint x="-23" y="-10" as="offset" />
          </mxGeometry>
        </mxCell>
        <mxCell id="Wvdo1vgkeKQc-Hcm9Mp9-28" value="" style="endArrow=classic;html=1;fontSize=18;fontColor=#CC0000;entryX=1;entryY=0.5;entryDx=0;entryDy=0;" parent="1" target="Wvdo1vgkeKQc-Hcm9Mp9-12" edge="1">
          <mxGeometry width="50" height="50" relative="1" as="geometry">
            <mxPoint x="800" y="460" as="sourcePoint" />
            <mxPoint x="730" y="535" as="targetPoint" />
          </mxGeometry>
        </mxCell>
        <mxCell id="Wvdo1vgkeKQc-Hcm9Mp9-36" value="Xem nội dung" style="edgeLabel;html=1;align=center;verticalAlign=middle;resizable=0;points=[];fontSize=16;rotation=-30;" parent="Wvdo1vgkeKQc-Hcm9Mp9-28" vertex="1" connectable="0">
          <mxGeometry x="-0.1646" y="1" relative="1" as="geometry">
            <mxPoint x="-20" y="-7" as="offset" />
          </mxGeometry>
        </mxCell>
        <mxCell id="Wvdo1vgkeKQc-Hcm9Mp9-38" value="" style="endArrow=classic;html=1;fontSize=17;fontColor=#CC0000;" parent="1" edge="1">
          <mxGeometry width="50" height="50" relative="1" as="geometry">
            <mxPoint x="770" y="610" as="sourcePoint" />
            <mxPoint x="487.5" y="565" as="targetPoint" />
          </mxGeometry>
        </mxCell>
        <mxCell id="Wvdo1vgkeKQc-Hcm9Mp9-43" value="Chỉnh sửa, xoá nội dung" style="edgeLabel;html=1;align=center;verticalAlign=middle;resizable=0;points=[];fontSize=16;fontColor=#000000;rotation=5;" parent="Wvdo1vgkeKQc-Hcm9Mp9-38" vertex="1" connectable="0">
          <mxGeometry x="-0.2566" y="-2" relative="1" as="geometry">
            <mxPoint x="40" y="-8" as="offset" />
          </mxGeometry>
        </mxCell>
        <mxCell id="Wvdo1vgkeKQc-Hcm9Mp9-39" value="" style="endArrow=classic;html=1;fontSize=17;fontColor=#CC0000;entryX=1.013;entryY=0.633;entryDx=0;entryDy=0;entryPerimeter=0;" parent="1" target="Wvdo1vgkeKQc-Hcm9Mp9-12" edge="1">
          <mxGeometry width="50" height="50" relative="1" as="geometry">
            <mxPoint x="740" y="638" as="sourcePoint" />
            <mxPoint x="680" y="620" as="targetPoint" />
          </mxGeometry>
        </mxCell>
        <mxCell id="Wvdo1vgkeKQc-Hcm9Mp9-44" value="Chỉnh sửa, xoá nội dung" style="edgeLabel;html=1;align=center;verticalAlign=middle;resizable=0;points=[];fontSize=16;fontColor=#000000;" parent="Wvdo1vgkeKQc-Hcm9Mp9-39" vertex="1" connectable="0">
          <mxGeometry x="-0.1192" y="2" relative="1" as="geometry">
            <mxPoint x="8" y="-20" as="offset" />
          </mxGeometry>
        </mxCell>
        <mxCell id="Wvdo1vgkeKQc-Hcm9Mp9-41" value="" style="endArrow=classic;html=1;fontSize=17;fontColor=#CC0000;" parent="1" edge="1">
          <mxGeometry width="50" height="50" relative="1" as="geometry">
            <mxPoint x="830" y="560" as="sourcePoint" />
            <mxPoint x="830" y="450" as="targetPoint" />
          </mxGeometry>
        </mxCell>
        <mxCell id="Wvdo1vgkeKQc-Hcm9Mp9-42" value="Thực hiện được&lt;br style=&quot;font-size: 16px;&quot;&gt;&amp;nbsp;tất cả vai trò&lt;br style=&quot;font-size: 16px;&quot;&gt;của người dùng" style="edgeLabel;html=1;align=center;verticalAlign=middle;resizable=0;points=[];fontSize=16;rotation=0;" parent="Wvdo1vgkeKQc-Hcm9Mp9-41" vertex="1" connectable="0">
          <mxGeometry x="0.5273" relative="1" as="geometry">
            <mxPoint x="60" y="37" as="offset" />
          </mxGeometry>
        </mxCell>
      </root>
    </mxGraphModel>
  </diagram>
</mxfile>
